<?xml version="1.0" standalone="no"?>
<!DOCTYPE svg PUBLIC "-//W3C//DTD SVG 20010904//EN"
 "http://www.w3.org/TR/2001/REC-SVG-20010904/DTD/svg10.dtd">
<svg version="1.0" xmlns="http://www.w3.org/2000/svg"
 width="500.000000pt" height="500.000000pt" viewBox="0 0 500.000000 500.000000"
 preserveAspectRatio="xMidYMid meet">

<g transform="translate(0.000000,500.000000) scale(0.100000,-0.100000)"
fill="#000000" stroke="none">
<path d="M2000 4208 c-19 -21 -20 -33 -20 -365 l0 -343 -350 0 c-234 0 -357
-4 -373 -11 -14 -6 -30 -22 -36 -36 -8 -16 -11 -163 -11 -466 0 -420 1 -443
20 -467 l19 -25 203 -3 203 -3 39 81 c52 110 134 218 260 344 171 171 183 195
221 439 3 20 9 37 14 37 4 0 32 -19 62 -41 145 -110 254 -117 293 -19 18 44
21 130 7 176 -5 16 -17 56 -26 89 -10 33 -27 78 -38 100 -30 58 -33 24 -7 -81
45 -184 36 -305 -26 -320 -36 -9 -101 23 -186 93 -91 74 -112 110 -105 176 6
60 50 162 96 225 36 49 116 102 181 119 69 19 172 16 230 -6 68 -26 150 -88
166 -127 27 -65 75 -90 219 -116 64 -12 70 -15 78 -43 5 -16 13 -37 18 -45 21
-35 22 -46 5 -94 -21 -60 -57 -102 -106 -123 -19 -8 -89 -18 -155 -23 -112 -8
-122 -11 -142 -35 -38 -43 -32 -132 17 -276 22 -65 40 -127 40 -138 0 -28 -20
-18 -51 28 -21 30 -38 41 -80 53 l-54 15 3 74 c3 59 1 78 -12 88 -23 19 -61
-8 -77 -54 -7 -19 -17 -35 -21 -35 -5 0 -15 17 -23 38 -19 48 -47 67 -74 50
-28 -17 -96 -125 -116 -183 -9 -27 -21 -95 -26 -150 -20 -230 -40 -276 -170
-382 -72 -59 -145 -146 -180 -216 -38 -74 -61 -194 -56 -292 4 -88 27 -177 51
-203 10 -10 13 19 13 145 0 262 35 347 211 512 148 138 162 161 173 299 4 59
8 130 8 159 0 75 38 177 90 243 25 31 40 20 72 -54 24 -53 25 -54 74 -61 91
-12 142 -43 188 -115 13 -21 41 -44 70 -58 l47 -22 -5 -50 c-8 -88 -34 -119
-140 -173 -72 -36 -82 -60 -57 -133 51 -148 50 -192 -6 -328 -37 -93 -52 -160
-52 -240 0 -88 14 -132 43 -140 30 -8 188 -7 271 3 49 5 72 13 82 26 11 15 14
92 14 392 l0 372 361 3 361 3 19 24 c18 22 19 45 19 471 0 247 -3 456 -6 465
-16 40 -52 45 -312 45 l-249 0 4 73 c6 93 -3 104 -87 118 -36 6 -75 13 -87 15
l-23 4 0 236 0 235 -25 24 -24 25 -475 0 -475 0 -21 -22z"/>
<path d="M2748 3695 c-9 -21 -9 -29 5 -42 13 -13 19 -14 31 -3 19 15 21 41 4
58 -18 18 -27 15 -40 -13z"/>
<path d="M2661 2794 c-13 -30 -9 -40 19 -47 25 -6 35 12 26 48 -8 32 -30 32
-45 -1z"/>
<path d="M1085 1391 c-75 -19 -139 -71 -171 -139 -26 -55 -31 -181 -9 -238 22
-58 66 -109 119 -137 59 -31 184 -31 243 0 36 20 103 87 103 104 0 3 -19 13
-41 22 -41 16 -42 16 -61 -8 -30 -38 -71 -55 -132 -55 -50 0 -60 4 -95 35 -90
82 -77 251 24 310 67 40 132 31 191 -26 28 -27 33 -28 65 -18 19 7 38 15 42
19 13 11 -60 88 -104 111 -43 21 -130 32 -174 20z"/>
<path d="M1450 1125 l0 -265 155 0 c85 0 158 0 163 0 4 0 8 18 10 40 l3 39
-118 3 -118 3 -3 223 -2 222 -45 0 -45 0 0 -265z"/>
<path d="M1870 1125 l0 -265 45 0 45 0 0 265 0 265 -45 0 -45 0 0 -265z"/>
<path d="M2080 1125 l0 -265 45 0 45 0 0 186 0 186 23 -29 c13 -15 39 -50 57
-78 19 -27 36 -52 39 -55 3 -3 19 -25 36 -50 16 -25 49 -71 73 -103 42 -56 45
-58 85 -55 l42 3 0 260 0 260 -42 3 -43 3 0 -181 c0 -108 -4 -180 -9 -178 -5
2 -46 55 -91 118 -185 263 -164 240 -215 240 l-45 0 0 -265z"/>
<path d="M2650 1125 l0 -266 43 3 42 3 0 260 0 260 -42 3 -43 3 0 -266z"/>
<path d="M2857 1383 c-4 -3 -7 -120 -7 -259 0 -240 1 -254 19 -264 11 -5 30
-8 43 -6 13 3 26 5 31 5 4 1 7 42 7 91 l0 90 81 0 c94 0 138 16 175 65 45 59
42 169 -5 224 -39 44 -98 61 -222 61 -64 0 -119 -3 -122 -7z m252 -92 c49 -26
51 -114 4 -151 -20 -16 -40 -20 -94 -20 l-69 0 0 93 0 92 68 -1 c38 -1 79 -7
91 -13z"/>
<path d="M3337 1384 c-4 -4 -7 -124 -7 -266 l0 -258 166 0 165 0 -3 43 -3 42
-110 3 c-60 2 -111 5 -113 7 -2 2 -4 30 -5 62 l-2 58 105 5 105 5 0 40 0 40
-105 5 -104 5 -2 50 c0 28 1 56 4 63 3 9 36 12 119 12 l114 0 -3 43 -3 42
-156 3 c-85 1 -158 -1 -162 -4z"/>
<path d="M3732 1348 l3 -43 73 -3 72 -3 0 -219 0 -220 45 0 45 0 0 220 0 220
70 0 c65 0 70 1 76 24 15 61 17 61 -194 64 l-193 2 3 -42z"/>
</g>
</svg>
